<?xml version="1.0" encoding="UTF-8"?>
<svg width="132px" height="41px" viewBox="0 0 132 41" version="1.1" xmlns="http://www.w3.org/2000/svg" xmlns:xlink="http://www.w3.org/1999/xlink">
    <!-- Generator: Sketch 56.3 (81716) - https://sketch.com -->
    <title>LOGO</title>
    <desc>Created with Sketch.</desc>
    <g id="Page-1" stroke="none" stroke-width="1" fill="none" fill-rule="evenodd">
        <g id="Desktop-HD" transform="translate(-136.000000, -18.000000)">
            <g id="LOGO" transform="translate(136.000000, 18.000000)">
                <path d="M128.294083,30.3011697 L121.512067,22.0328593 C121.189003,21.6267048 120.902439,21.35257 120.650822,21.212008 C120.400758,21.0714459 120.107204,21 119.767832,21 C119.153544,21 118.668948,21.2593797 118.313267,21.7750328 C118.184352,21.9458817 118.10048,22.1221667 118.05932,22.3000049 C118.018937,22.481726 117.999522,22.7426588 117.999522,23.0859098 L117.999522,34.5172548 L117.999522,34.9148668 C117.999522,35.5081784 118.16882,35.992768 118.507416,36.367859 C118.846789,36.7421735 119.298768,36.9308839 119.863353,36.9308839 C120.429492,36.9308839 120.877588,36.7460564 121.207641,36.3795078 C121.539248,36.0121827 121.704663,35.5244867 121.704663,34.9148668 L121.704663,34.5172548 L121.704663,27.70116 L128.294083,35.8755036 C128.648987,36.3290298 128.943317,36.6280153 129.177072,36.7771198 C129.410828,36.9246712 129.698945,37 130.036765,37 C130.37769,37 130.695318,36.9207882 130.994308,36.765471 C131.293297,36.6101539 131.530936,36.3996991 131.708776,36.1333301 C131.837691,35.960928 131.918457,35.7784303 131.951074,35.5819541 C131.983691,35.387031 132,35.070184 132,34.6345192 L132,23.3903315 L132,22.9927195 C132,22.3986313 131.829925,21.9187012 131.491329,21.5521526 C131.15118,21.1848275 130.699978,21 130.133839,21 C129.585562,21 129.145232,21.1817211 128.813625,21.5397272 C128.482795,21.9000631 128.310391,22.3830995 128.294083,22.9927195 L128.294083,23.3903315 L128.294083,30.3011697 Z M106.965642,21 C105.865982,21 104.833109,21.2104548 103.863916,21.628258 C102.897054,22.048391 102.054447,22.6184051 101.333766,23.34063 C100.613861,24.0620783 100.044616,24.9124399 99.6268071,25.8901616 C99.2097749,26.8694365 98.9993173,27.9092851 98.9993173,29.0112605 C98.9993173,30.1140125 99.2097749,31.1499782 99.6268071,32.1214872 C100.044616,33.091443 100.616967,33.9371451 101.345415,34.65937 C102.072309,35.3815949 102.920352,35.9523856 103.887991,36.3709654 C104.85563,36.7903218 105.897046,37 107.011461,37 C108.111122,37 109.143995,36.7903218 110.110857,36.3709654 C111.080049,35.9523856 111.926539,35.3815949 112.654986,34.65937 C113.382657,33.9371451 113.955009,33.0968791 114.373594,32.1323594 C114.790626,31.1701694 114.999531,30.1373101 114.999531,29.0345581 C114.999531,27.9488909 114.798392,26.919138 114.396115,25.9491822 C113.993062,24.9784497 113.412944,24.1280881 112.654986,23.3980974 C111.865965,22.6378197 110.973655,22.048391 109.983495,21.628258 C108.992558,21.2104548 107.987643,21 106.965642,21 L106.965642,21 Z M107.022334,24.5396787 C107.625749,24.5396787 108.196547,24.6608261 108.736282,24.9000146 C109.278346,25.1399796 109.748963,25.4614862 110.149687,25.8645343 C110.551187,26.2675824 110.868815,26.7389701 111.099464,27.281027 C111.331666,27.8238606 111.447379,28.4031937 111.447379,29.0229093 C111.447379,29.6426249 111.331666,30.2196282 111.099464,30.7531427 C110.868815,31.2882105 110.551187,31.7572684 110.149687,32.1595399 C109.748963,32.5610348 109.280676,32.8802116 108.748707,33.1108576 C108.215185,33.3430568 107.641281,33.4587681 107.022334,33.4587681 C106.404939,33.4587681 105.826375,33.3430568 105.286641,33.1108576 C104.745353,32.8802116 104.270853,32.5610348 103.861587,32.1595399 C103.45232,31.7572684 103.131586,31.2843275 102.90016,30.7422705 C102.668735,30.2009901 102.553798,29.6263166 102.553798,29.0229093 C102.553798,28.419502 102.671841,27.8417221 102.911809,27.2918992 C103.151778,26.7436296 103.471735,26.2675824 103.872459,25.8645343 C104.274736,25.4614862 104.74846,25.1399796 105.29829,24.9000146 C105.844237,24.6608261 106.420471,24.5396787 107.022334,24.5396787 L107.022334,24.5396787 Z M93.2858984,24.3237878 L95.8067299,24.3237878 L96.1802727,24.3237878 C96.7246667,24.3237878 97.1634436,24.1731301 97.4981567,23.8725914 C97.8336462,23.571276 97.9998379,23.1682279 97.9998379,22.6618939 C97.9998379,22.1563365 97.8336462,21.7556181 97.4981567,21.4620686 C97.1634436,21.1692957 96.7246667,21.0155317 96.1802727,21 L95.8067299,21 L87.1709792,21 L86.8215109,21 C86.2755637,21 85.8367868,21.1529874 85.5020738,21.4620686 C85.1673608,21.772703 84.999616,22.1710916 84.999616,22.6618939 C84.999616,23.1682279 85.1634778,23.5681697 85.4904248,23.860166 C85.8173719,24.1529389 86.2608083,24.3074795 86.8215109,24.3237878 L87.1709792,24.3237878 L89.7151086,24.3237878 L89.7151086,34.5545309 L89.7151086,34.9583556 C89.7151086,35.5594331 89.8781939,36.0486822 90.2043643,36.4307625 C90.5320879,36.810513 90.9592159,37 91.4888546,37 C92.0332486,37 92.4650361,36.8128428 92.7834406,36.4408581 C93.1026217,36.0704266 93.2703665,35.5757414 93.2858984,34.9583556 L93.2858984,34.5545309 L93.2858984,24.3237878 Z M79.6659527,28.8000291 L83.1000614,24.4061059 C83.576115,23.7957094 83.8153066,23.2404504 83.8153066,22.7395525 C83.8153066,22.5190021 83.7648279,22.3046644 83.6646469,22.093433 C83.5652426,21.881425 83.4347744,21.6934912 83.2732424,21.5280784 C83.1117104,21.3642188 82.9191145,21.2353055 82.6962314,21.1413386 C82.4741248,21.0473717 82.2481353,21 82.0167096,21 C81.4334858,21 80.9170493,21.2974324 80.4720596,21.8922972 L80.2188892,22.2223463 L77.4534298,25.8171625 L74.8021301,22.1982721 C74.4495554,21.7447459 74.1536722,21.4310052 73.9152571,21.2593797 C73.6768421,21.0869776 73.3887248,21 73.0501289,21 C72.5437881,21 72.1088942,21.176285 71.7485535,21.5280784 C71.3874362,21.881425 71.2064893,22.3093239 71.2064893,22.8086686 C71.2064893,23.0595059 71.2561914,23.295588 71.3563724,23.5138087 C71.4557767,23.7328059 71.6514789,24.0310149 71.9442557,24.4061059 L75.2634283,28.8000291 L71.7136066,33.5931175 C71.437915,33.9697617 71.2492021,34.2703004 71.1490211,34.4962869 C71.0488402,34.7246032 70.9999147,34.9715575 70.9999147,35.2371499 C70.9999147,35.4724555 71.0488402,35.6961122 71.1490211,35.9057904 C71.2492021,36.118575 71.3788936,36.3065088 71.5404257,36.4703684 C71.7019577,36.634228 71.893777,36.7646945 72.1174367,36.8578848 C72.3403199,36.9518517 72.567086,37 72.7961819,37 C73.1495332,37 73.450076,36.9130224 73.696257,36.7413969 C73.9416614,36.5682182 74.240651,36.2474882 74.5947789,35.7784303 L77.4534298,31.7836723 L80.4495383,35.8258021 C80.8036662,36.2777751 81.0987728,36.5884095 81.3371879,36.7530457 C81.5748263,36.9176819 81.8629436,37 82.2007629,37 C82.4321886,37 82.6581782,36.9518517 82.8810613,36.8578848 C83.1039444,36.7646945 83.2957637,36.634228 83.4572957,36.4703684 C83.6188278,36.3065088 83.7500725,36.1224579 83.8494769,35.9189924 C83.9488812,35.7155269 83.9993599,35.4949765 83.9993599,35.2596709 C83.9993599,34.9948551 83.9457748,34.7447944 83.8378279,34.5087123 C83.729881,34.2741834 83.5450511,33.9759744 83.2848914,33.6179683 L79.6659527,28.8000291 Z M61.7397805,24.3595108 L66.5803052,24.3595108 L66.9709331,24.3595108 C67.5409548,24.3595108 67.9975934,24.2065233 68.3400724,23.9028782 C68.6817747,23.5984565 68.8526259,23.1915255 68.8526259,22.6797554 C68.8526259,22.1679852 68.6817747,21.763384 68.3400724,21.4675047 C67.9975934,21.1724021 67.5409548,21.0155317 66.9709331,21 L66.5803052,21 L60.6152691,21 L60.174939,21 C58.7568742,21 58.0307566,21.7121293 57.9996928,23.1340581 L57.9996928,23.5666165 L57.9996928,34.4341601 L57.9996928,34.8651653 C57.9996928,36.2568073 58.7242571,36.96816 60.174939,37 L60.6152691,37 L66.7014542,37 L67.0928587,37 C67.6628804,37 68.123402,36.8493423 68.4744235,36.5441441 C68.8238919,36.240499 68.9994026,35.8335679 68.9994026,35.3210212 C68.9994026,34.8092511 68.8238919,34.4054264 68.4744235,34.1103237 C68.123402,33.8144445 67.6628804,33.6575741 67.0928587,33.6420424 L66.7014542,33.6420424 L61.7397805,33.6420424 L61.7397805,30.3796049 L65.5536449,30.3796049 L65.8953472,30.3796049 C66.41722,30.3796049 66.836582,30.2390429 67.1542098,29.9594719 C67.4718377,29.6806776 67.6294868,29.3094695 67.6294868,28.8435179 C67.6294868,28.3798961 67.4718377,28.0172305 67.1542098,27.7531913 C66.836582,27.4891521 66.41722,27.3493666 65.8953472,27.3330583 L65.5536449,27.3330583 L61.7397805,27.3330583 L61.7397805,24.3595108 Z M51.2937838,23.3903315 L51.2937838,22.9927195 C51.3100923,22.3830995 51.4832733,21.9000631 51.8141033,21.5397272 C52.1449333,21.1817211 52.5852634,21 53.134317,21 C53.6996791,21 54.1516582,21.1848275 54.4910307,21.5521526 C54.8304033,21.9187012 54.9997013,22.3986313 54.9997013,22.9927195 L54.9997013,23.3903315 L54.9997013,34.6345192 C54.9997013,35.070184 54.9833928,35.387031 54.9515523,35.5819541 C54.9189353,35.7784303 54.8381693,35.960928 54.7092543,36.1333301 C54.5306372,36.3996991 54.2929987,36.6101539 53.9947857,36.765471 C53.6950195,36.9207882 53.3773917,37 53.0372425,37 C52.6986465,37 52.4113059,36.9246712 52.1775504,36.7771198 C51.9437949,36.6280153 51.6486883,36.3290298 51.2937838,35.8755036 L44.7043643,27.70116 L44.7043643,34.5172548 L44.7043643,34.9148668 C44.7043643,35.5244867 44.5389493,36.0121827 44.2088959,36.3795078 C43.8772893,36.7460564 43.4299698,36.9308839 42.8630545,36.9308839 C42.298469,36.9308839 41.8472666,36.7421735 41.507894,36.367859 C41.169298,35.992768 41,35.5081784 41,34.9148668 L41,34.5172548 L41,23.0859098 C41,22.7426588 41.0194149,22.481726 41.0590213,22.3000049 C41.1009575,22.1221667 41.1848299,21.9458817 41.3137449,21.7750328 C41.669426,21.2593797 42.1547987,21 42.7675332,21 C43.1069057,21 43.4012357,21.0714459 43.6505231,21.212008 C43.9021403,21.35257 44.1887044,21.6267048 44.5117684,22.0328593 L51.2937838,30.3011697 L51.2937838,23.3903315 Z" id="Fill-1" fill="#00869A"></path>
                <path d="M43.7657238,0 L0,0.000700052931 L4.91432472,8.78426418 C5.72613058,9.67963187 6.87687918,10.2452746 8.1594772,10.2452746 C8.19399276,10.2452746 8.21953427,10.249475 8.24990796,10.2515751 L28.6817359,10.2515751 L23.5810272,19.3648642 C23.1813371,20.3267369 22.945941,21.3789165 22.945941,22.4920006 L22.945941,41 L44.9074983,1.75853296 C44.9668651,1.60872164 45,1.44490925 45,1.27339628 C45,0.570543139 44.4463705,0.000700052931 43.7657238,0" id="Fill-3" fill="#00A5C8"></path>
            </g>
        </g>
    </g>
</svg>